<svg xmlns="http://www.w3.org/2000/svg" width="16" height="16" viewBox="0 0 16 16"><path fill-rule="evenodd" d="M14.193,6.98l-5.844,0c-0.592,0 -0.592,0.412 -0.592,1.004c0,0.592 0,1.004 0.592,1.004l5.834,0c0.592,0 0.592,-0.412 0.592,-1.004c0,-0.592 0,-1.004 -0.592,-1.004l0.01,0Zm-7.852,5.021c-0.593,0 -0.593,0.411 -0.593,1.004c0,0.592 0,1.004 0.593,1.004l7.842,0c0.592,0 0.592,-0.412 0.592,-1.004c0,-0.593 0,-1.004 -0.592,-1.004l-7.842,0Zm0,-8.033l7.842,0c0.592,0 0.592,-0.412 0.592,-1.005c0,-0.592 0,-1.004 -0.592,-1.004l-7.842,0c-0.593,0 -0.593,0.412 -0.593,1.004c0,0.593 0,1.005 0.593,1.005Zm-5.116,-0.005l4.021,4.021l-4.021,4.022l0,-8.043Z"/></svg>