<svg xmlns="http://www.w3.org/2000/svg" width="18" height="16" viewBox="0 0 18 16"><g><path d="M13.305,10.907c0,1.122 -0.418,1.988 -1.254,2.597c-0.837,0.609 -2.01,0.913 -3.521,0.913c-1.6,0 -2.847,-0.253 -3.742,-0.759l0,-1.695c0.58,0.294 1.2,0.525 1.86,0.694c0.668,0.168 1.309,0.253 1.926,0.253c0.953,0 1.687,-0.151 2.2,-0.451c0.514,-0.309 0.771,-0.774 0.771,-1.398c0,-0.469 -0.206,-0.869 -0.617,-1.199c-0.403,-0.338 -1.195,-0.734 -2.376,-1.189c-1.123,-0.418 -1.922,-0.781 -2.399,-1.089c-0.47,-0.315 -0.822,-0.671 -1.056,-1.067c-0.228,-0.397 -0.342,-0.87 -0.342,-1.42c0,-0.983 0.4,-1.757 1.2,-2.322c0.799,-0.572 1.896,-0.858 3.29,-0.858c1.298,0 2.567,0.264 3.807,0.792l-0.649,1.486c-1.211,-0.499 -2.307,-0.748 -3.29,-0.748c-0.866,0 -1.519,0.135 -1.959,0.407c-0.44,0.271 -0.66,0.645 -0.66,1.122c0,0.323 0.081,0.598 0.242,0.825c0.169,0.228 0.437,0.444 0.803,0.65c0.367,0.205 1.071,0.502 2.113,0.891c1.43,0.521 2.395,1.045 2.894,1.573c0.506,0.529 0.759,1.192 0.759,1.992l0,0Zm1.735,-3.491l0,1.502l-12.019,0l0,-1.502l12.019,0Z"/></g></svg>