<svg xmlns="http://www.w3.org/2000/svg" width="18" height="16" viewBox="0 0 18 16"><g><path d="M3,12.917l12,0l0,1.5l-12,0l0.009,-1.5l-0.009,0Z" style="fill-rule:nonzero;"/><path d="M8.955,11.33c-0.829,0 -1.737,-0.222 -2.412,-0.615c-1.234,-0.708 -1.871,-2.142 -1.916,-3.524c-0.019,-1.757 -0.003,-3.516 -0.008,-5.274l0,0c0.674,0 1.349,0 2.024,0c0,1.512 0,3.024 0,4.535c-0.044,0.842 0.177,1.914 0.575,2.444c0.392,0.521 1.208,0.733 1.812,0.733c0.604,0 1.421,-0.212 1.812,-0.733c0.398,-0.53 0.62,-1.602 0.576,-2.444c0,-1.511 0,-3.023 0,-4.535c0.675,0 1.349,0 2.024,0l0,0c-0.005,1.758 0.01,3.517 -0.008,5.274c-0.046,1.382 -0.682,2.816 -1.916,3.524c-0.774,0.451 -1.733,0.615 -2.563,0.615Z"/></g></svg>